<?xml version="1.0" encoding="utf-8"?>
<!-- Generator: Adobe Illustrator 26.0.1, SVG Export Plug-In . SVG Version: 6.00 Build 0)  -->
<svg version="1.1" id="Capa_1" xmlns="http://www.w3.org/2000/svg" xmlns:xlink="http://www.w3.org/1999/xlink" x="0px" y="0px"
	 viewBox="0 0 129 43" style="enable-background:new 0 0 129 43;" xml:space="preserve">
<style type="text/css">
	.st0{fill:#5000B9;}
</style>
<g>
	<path class="st0" d="M49.3,23.3h-4.4l-1.6-3.9h-7.7L34,23.3h-4.4l7.8-20h4L49.3,23.3L49.3,23.3z M37,15.6h5l-2.5-6.5L37,15.6
		L37,15.6z"/>
	<path class="st0" d="M54.7,23.3h-4v-14h4v1C55.6,9.4,56.8,9,58,9c3.4,0,5.7,2.2,5.7,6.2v8.1h-4v-7.8c0-1.5-0.7-2.7-2.3-2.7
		c-1.9,0-2.6,1.4-2.6,3.6L54.7,23.3"/>
	<path class="st0" d="M79.8,17.9c-0.7,3.4-3.2,5.8-7,5.8c-4.2,0-7.4-3.1-7.4-7.3S68.5,9,72.8,9c3.7,0,6.3,2.3,6.8,5.6h-4.4
		c-0.2-0.5-0.5-1-0.9-1.3c-0.4-0.3-1-0.5-1.5-0.5c-1.7,0-3.1,1.5-3.1,3.5s1.4,3.5,3.1,3.5c0.6,0,1.2-0.2,1.7-0.5
		c0.5-0.4,0.8-0.9,1-1.4H79.8"/>
	<path class="st0" d="M85.5,23.3h-4v-20h4v6.8C86.4,9.4,87.5,9,88.7,9c3.4,0,5.7,2.2,5.7,6.2v8.1h-4v-7.8c0-1.5-0.7-2.7-2.3-2.7
		c-1.9,0-2.6,1.4-2.6,3.6L85.5,23.3L85.5,23.3z"/>
	<path class="st0" d="M103.6,9c4.2,0,7.5,3.1,7.5,7.3s-3.2,7.3-7.5,7.3c-4.2,0-7.5-3.1-7.5-7.3S99.3,9,103.6,9z M103.6,19.8
		c1.9,0,3.3-1.5,3.3-3.5s-1.4-3.5-3.3-3.5c-1.9,0-3.3,1.5-3.3,3.5S101.7,19.8,103.6,19.8z"/>
	<path class="st0" d="M122,14.1c-0.7-0.7-1.7-1.1-2.7-1.1c-1.2,0-2.6,0.7-2.6,2.7v7.5h-4v-14h4v1.2c0,0,0.8-1.4,2.8-1.4
		c0.5,0,0.9,0.1,1.4,0.2c0.4,0.2,0.8,0.4,1.1,0.8L122,14.1"/>
	<path class="st0" d="M124.3,21.9v-3.4h1.5c0.3,0,0.5,0,0.8,0.1c0.2,0.1,0.3,0.2,0.4,0.3c0.1,0.2,0.1,0.3,0.1,0.5
		c0,0.2,0,0.3-0.1,0.5c0,0-0.1,0.1-0.1,0.1c-0.2,0.2-0.4,0.3-0.6,0.3c0.1,0.1,0.2,0.2,0.3,0.3c0.1,0.2,0.3,0.4,0.4,0.6
		c0.1,0.1,0.2,0.4,0.4,0.7h-0.8l-0.5-0.7c-0.1-0.2-0.2-0.3-0.4-0.5c-0.1-0.1-0.1-0.1-0.2-0.1c-0.1,0-0.2,0-0.3,0H125v1.4L124.3,21.9
		L124.3,21.9z M125,19.9h0.5c0.2,0,0.4,0,0.6,0c0.1,0,0.1-0.1,0.2-0.1c0-0.1,0.1-0.2,0.1-0.3c0-0.1,0-0.2-0.1-0.3
		c-0.1-0.1-0.2-0.1-0.3-0.1c-0.1,0-0.2,0-0.5,0l-0.5,0L125,19.9L125,19.9z"/>
	<path class="st0" d="M125.6,23.2c-0.4,0-0.8-0.1-1.2-0.2c-0.4-0.2-0.7-0.4-1-0.7c-0.1-0.1-0.3-0.3-0.4-0.5c-0.4-0.6-0.6-1.3-0.5-2
		c0.1-0.7,0.4-1.4,0.9-1.9c0.1-0.1,0.3-0.3,0.5-0.4c0.5-0.3,1.1-0.5,1.7-0.5c0.6,0,1.2,0.2,1.7,0.5c0.2,0.1,0.3,0.2,0.5,0.4
		c0.3,0.3,0.5,0.6,0.7,1c0.2,0.5,0.3,1,0.2,1.5c0,0.5-0.2,1-0.5,1.4c-0.1,0.2-0.2,0.3-0.4,0.5c-0.3,0.3-0.6,0.5-1,0.7
		C126.4,23.1,126,23.2,125.6,23.2L125.6,23.2z M125.6,17.4c-0.6,0-1.1,0.2-1.6,0.5c-0.5,0.3-0.8,0.7-1,1.3c-0.2,0.5-0.3,1.1-0.2,1.6
		c0.1,0.5,0.4,1,0.8,1.4c0.4,0.4,0.9,0.7,1.4,0.8c0.5,0.1,1.1,0.1,1.6-0.2c0.5-0.2,1-0.6,1.3-1c0.3-0.5,0.5-1,0.5-1.6
		c0-0.7-0.3-1.5-0.8-2C127,17.6,126.3,17.4,125.6,17.4L125.6,17.4z"/>
	<path class="st0" d="M81.2,37.1h-0.9v-6.7h0.9v2.9c0.1-0.2,0.3-0.4,0.6-0.5c0.3-0.2,0.6-0.2,0.9-0.2c0.7,0,1.2,0.2,1.5,0.7
		c0.4,0.5,0.5,1.1,0.5,1.7c0,0.6-0.2,1.2-0.6,1.7c-0.2,0.2-0.4,0.4-0.7,0.5c-0.3,0.1-0.6,0.2-0.8,0.2c-0.7,0-1.2-0.3-1.5-0.8
		L81.2,37.1L81.2,37.1z M83.4,36c0.3-0.3,0.4-0.7,0.4-1.2c0-0.4-0.1-0.8-0.4-1.2c-0.1-0.1-0.3-0.3-0.4-0.3c-0.2-0.1-0.3-0.1-0.5-0.1
		c-0.2,0-0.4,0-0.5,0.1c-0.2,0.1-0.3,0.2-0.4,0.3c-0.3,0.3-0.4,0.7-0.4,1.1c0,0.4,0.1,0.8,0.4,1.2c0.1,0.1,0.3,0.3,0.4,0.3
		c0.2,0.1,0.3,0.1,0.5,0.1c0.2,0,0.4,0,0.5-0.1C83.2,36.3,83.3,36.2,83.4,36L83.4,36L83.4,36z"/>
	<path class="st0" d="M86.8,39l-1,0l1.1-2.4l-1.9-4h1l1.4,3.1l1.3-3.1h0.9L86.8,39L86.8,39z"/>
	<path class="st0" d="M97.2,32l-0.8,0.3c-0.1-0.3-0.2-0.6-0.4-0.8c-0.3-0.2-0.6-0.3-0.9-0.3c-0.3,0-0.7,0.1-1,0.3
		c-0.1,0.1-0.2,0.2-0.3,0.3c-0.1,0.1-0.1,0.3-0.1,0.4c0,0.2,0.1,0.4,0.2,0.6c0.2,0.2,0.4,0.3,0.6,0.3l1,0.2c0.5,0.1,0.9,0.3,1.3,0.7
		c0.3,0.3,0.5,0.7,0.4,1.2c0,0.3-0.1,0.5-0.2,0.8c-0.1,0.2-0.3,0.5-0.5,0.6c-0.4,0.4-1,0.6-1.7,0.6c-0.7,0-1.3-0.2-1.7-0.6
		c-0.4-0.4-0.7-0.8-0.7-1.4l0.9-0.3c0,0.4,0.2,0.7,0.5,1c0.1,0.1,0.3,0.2,0.5,0.3c0.2,0.1,0.4,0.1,0.6,0.1c0.4,0,0.8-0.1,1-0.3
		c0.1-0.1,0.2-0.2,0.3-0.3c0.1-0.1,0.1-0.3,0.1-0.4c0-0.2-0.1-0.5-0.3-0.6c-0.2-0.2-0.5-0.3-0.7-0.4l-0.9-0.2
		c-0.4-0.1-0.9-0.3-1.2-0.6c-0.3-0.3-0.5-0.7-0.4-1.2c0-0.3,0.1-0.5,0.2-0.8c0.1-0.2,0.3-0.4,0.5-0.6c0.4-0.4,1-0.6,1.5-0.6
		c0.7,0,1.2,0.2,1.6,0.5C96.8,31.2,97.1,31.6,97.2,32L97.2,32z"/>
	<path class="st0" d="M99,38.9h-0.9v-6.3H99v0.7c0.1-0.2,0.3-0.4,0.6-0.6c0.3-0.2,0.6-0.2,0.9-0.2c0.6,0,1.2,0.2,1.5,0.7
		c0.4,0.5,0.5,1.1,0.5,1.7c0,0.6-0.2,1.2-0.6,1.7c-0.2,0.2-0.4,0.4-0.7,0.5c-0.3,0.1-0.6,0.2-0.8,0.2c-0.3,0-0.6-0.1-0.9-0.2
		c-0.2-0.1-0.4-0.3-0.6-0.5L99,38.9L99,38.9z M101.6,34.9c0-0.4-0.1-0.8-0.4-1.1c-0.1-0.1-0.3-0.3-0.4-0.3c-0.2-0.1-0.4-0.1-0.5-0.1
		c-0.2,0-0.4,0-0.5,0.1c-0.2,0.1-0.3,0.2-0.4,0.3c-0.3,0.3-0.4,0.7-0.4,1.1c0,0.4,0.1,0.8,0.4,1.1c0.1,0.1,0.3,0.3,0.4,0.3
		c0.2,0.1,0.4,0.1,0.5,0.1c0.2,0,0.4,0,0.5-0.1c0.2-0.1,0.3-0.2,0.4-0.3C101.5,35.7,101.7,35.3,101.6,34.9L101.6,34.9z"/>
	<path class="st0" d="M103.9,33.2c0.4-0.4,1-0.7,1.6-0.7c0.6,0,1.2,0.2,1.6,0.7c0.2,0.2,0.4,0.5,0.5,0.8c0.1,0.3,0.2,0.6,0.2,0.9
		c0,0.3,0,0.6-0.2,0.9c-0.1,0.3-0.3,0.6-0.5,0.8c-0.4,0.4-1,0.7-1.7,0.7c-0.6,0-1.2-0.2-1.7-0.7c-0.2-0.2-0.4-0.5-0.5-0.8
		c-0.1-0.3-0.2-0.6-0.2-0.9c0-0.3,0-0.6,0.2-0.9C103.6,33.7,103.7,33.4,103.9,33.2L103.9,33.2z M104.6,36.1c0.1,0.1,0.3,0.2,0.5,0.3
		c0.2,0.1,0.4,0.1,0.5,0.1c0.2,0,0.4,0,0.5-0.1c0.2-0.1,0.3-0.2,0.5-0.3c0.3-0.3,0.4-0.7,0.4-1.2c0-0.5-0.1-0.9-0.4-1.2
		c-0.1-0.1-0.3-0.2-0.5-0.3c-0.2-0.1-0.4-0.1-0.5-0.1c-0.2,0-0.4,0-0.5,0.1c-0.2,0.1-0.3,0.2-0.5,0.3c-0.3,0.3-0.4,0.7-0.4,1.2
		C104.2,35.4,104.3,35.8,104.6,36.1z"/>
	<path class="st0" d="M110.1,31.2v1.4h1v0.8h-1v2.3c0,0.1,0,0.2,0,0.3c0,0.1,0.1,0.2,0.1,0.2c0.1,0.1,0.1,0.1,0.2,0.1
		c0.1,0,0.2,0,0.3,0c0.1,0,0.2,0,0.3,0v0.7c-0.2,0.1-0.4,0.1-0.6,0.1c-0.2,0-0.3,0-0.5-0.1c-0.2-0.1-0.3-0.1-0.4-0.3
		c-0.1-0.1-0.2-0.3-0.3-0.4c-0.1-0.2-0.1-0.3-0.1-0.5v-2.5h-0.9v-0.8l0.2,0c0.1,0,0.2,0,0.3,0c0.1,0,0.2-0.1,0.2-0.2
		c0.1-0.1,0.2-0.3,0.2-0.5v-0.7L110.1,31.2L110.1,31.2z"/>
	<path class="st0" d="M112.3,31.4c-0.1-0.1-0.1-0.1-0.1-0.2c0-0.1,0-0.2,0-0.2c0-0.1,0-0.2,0-0.2c0-0.1,0.1-0.1,0.1-0.2
		c0.1-0.1,0.1-0.1,0.2-0.1c0.1,0,0.2,0,0.2,0c0.1,0,0.2,0,0.2,0c0.1,0,0.1,0.1,0.2,0.1c0.1,0.1,0.1,0.1,0.1,0.2c0,0.1,0,0.2,0,0.2
		c0,0.1,0,0.2,0,0.2c0,0.1-0.1,0.1-0.1,0.2c-0.1,0.1-0.1,0.1-0.2,0.1c-0.1,0-0.2,0-0.2,0c-0.1,0-0.2,0-0.2,0
		C112.4,31.5,112.3,31.5,112.3,31.4L112.3,31.4z M113.1,37.1h-0.9v-4.5h0.9V37.1z"/>
	<path class="st0" d="M116.9,33.4h-1.1v3.7h-0.9v-3.7h-0.8v-0.8l0.8,0v-0.8c0-0.2,0-0.4,0.1-0.6c0.1-0.2,0.2-0.4,0.3-0.5
		c0.1-0.1,0.3-0.2,0.5-0.3c0.2-0.1,0.4-0.1,0.6-0.1c0.3,0,0.4,0,0.5,0.1v0.8c-0.1,0-0.3-0.1-0.4-0.1c-0.2,0-0.4,0.1-0.5,0.2
		c-0.1,0.1-0.2,0.3-0.2,0.6v0.7h1.1L116.9,33.4L116.9,33.4z"/>
	<path class="st0" d="M119.1,39l-1,0l1.1-2.4l-1.9-4h1l1.4,3.1l1.3-3.1h0.9L119.1,39z"/>
	<path class="st0" d="M24.7,7.6c0,0-1.1-0.5-2.2-0.2c-0.8,0.2-1.7,0.9-2.3,2.2c-1,2.5-0.1,6.9-0.5,6.9s-1.4-4-2.8-8.2
		C15.6,4,14.3-0.3,12.1,0c-2,0.3-1.4,5.3-0.6,10c0.7,4.2,1.5,8.2,1,8.2C11.7,18.2,9,6.5,6.2,6.9C3.4,7.4,7,20.2,6.3,20.3
		c-0.6,0-2.1-7.8-4.4-7.5c-1.7,0.3-0.2,6.4-0.1,8.1c0,0.4,0.1,1.2-0.5,1.2H0v1.2h2.1c0.4,0,0.8-0.2,0.9-0.6c0.6-1.4-0.9-7.5-0.6-7.5
		c0.2,0,0.8,1.8,1.5,3.9c0.7,2.1,1.5,4.2,2.9,4.2c3,0-0.1-11.8,0.5-11.8c0.3,0,1.2,2.4,2.1,5c1.2,3.2,2.6,6.8,4.3,6.8
		c2,0,1.4-4.6,0.7-9c-0.5-3.8-1.2-7.4-0.8-7.4c0.8,0,3.7,16.4,7.2,16.4c1.7,0,1.8-3.4,1.8-7.1c0-2.6-0.2-5,1.4-5.5
		c0.8-0.3,1.6,0.2,1.6,0.2L24.7,7.6L24.7,7.6z"/>
</g>
</svg>
