<?xml version="1.0" encoding="utf-8"?>
<!-- Generator: Adobe Illustrator 26.0.1, SVG Export Plug-In . SVG Version: 6.00 Build 0)  -->
<svg version="1.1" id="Capa_1" xmlns="http://www.w3.org/2000/svg" xmlns:xlink="http://www.w3.org/1999/xlink" x="0px" y="0px"
	 viewBox="0 0 129 43" style="enable-background:new 0 0 129 43;" xml:space="preserve">
<style type="text/css">
	.st0{fill-rule:evenodd;clip-rule:evenodd;fill:url(#XMLID_00000129191277932092855790000009771596331684539560_);}
	.st1{fill:#FFFFFF;}
	.st2{fill:none;}
	.st3{font-family:'Roboto-Regular';}
	.st4{font-size:13.4747px;}
	.st5{font-family:'Roboto-Medium';}
</style>
<g id="XMLID_632_">
	
		<linearGradient id="XMLID_00000116212923635765822190000002000622840982208683_" gradientUnits="userSpaceOnUse" x1="18.6272" y1="43.8429" x2="18.6272" y2="6.5884" gradientTransform="matrix(1 0 0 -1 0 43.89)">
		<stop  offset="0" style="stop-color:#F452FF"/>
		<stop  offset="1" style="stop-color:#832BC1"/>
	</linearGradient>
	
		<path id="XMLID_662_" style="fill-rule:evenodd;clip-rule:evenodd;fill:url(#XMLID_00000116212923635765822190000002000622840982208683_);" d="
		M36.5,32.3c-0.4,0.9-1.2,2.2-2.4,3.1c-0.7,0.5-1.5,1-2.6,1.4c-1.2,0.4-2.7,0.5-4.5,0.5H10.2c-1.8,0-3.3-0.1-4.5-0.5
		c-1.1-0.3-1.9-0.8-2.6-1.4c-1.2-0.9-2-2.2-2.4-3.1C0,30.5,0,28.4,0,27.1l0,0V10.3l0,0C0,9,0,6.9,0.7,5c0.4-0.9,1.2-2.2,2.4-3.1
		c0.7-0.5,1.5-1,2.6-1.4C6.9,0.2,8.4,0,10.2,0l0,0H27l0,0c1.8,0,3.3,0.1,4.5,0.5c1.1,0.3,1.9,0.8,2.6,1.4c1.2,0.9,2,2.2,2.4,3.1
		c0.7,1.9,0.7,4,0.7,5.3v16.8C37.3,28.4,37.2,30.5,36.5,32.3z"/>
	<g>
		<path id="XMLID_657_" class="st1" d="M21.8,22.5c0-0.4-0.2-0.8-0.5-1.1c-0.6-0.6-1.5-1-2.7-1s-2.1,0.4-2.7,1
			c-0.3,0.3-0.4,0.6-0.5,1.1c-0.1,0.9,0,1.6,0.1,2.8c0.1,1.1,0.3,2.7,0.5,4.2c0.2,1.1,0.3,1.7,0.4,2.1c0.2,0.7,1,1.3,2.2,1.3
			s2-0.6,2.2-1.3c0.1-0.4,0.3-1,0.4-2.1c0.2-1.6,0.4-3.1,0.5-4.2C21.9,24.2,21.9,23.4,21.8,22.5z"/>
		<path id="XMLID_655_" class="st1" d="M21.7,16.2c0,1.7-1.4,3.1-3.1,3.1s-3.1-1.4-3.1-3.1c0-1.7,1.4-3.1,3.1-3.1
			S21.7,14.5,21.7,16.2z"/>
		<path id="XMLID_653_" class="st1" d="M18.6,4.2c-7.1,0-13,5.8-13.1,12.9c-0.1,5.8,3.6,10.7,8.8,12.5c0.1,0,0.2-0.1,0.2-0.2
			c-0.1-0.4-0.1-0.9-0.2-1.3c0-0.2-0.1-0.3-0.3-0.4C10,26,7.2,21.9,7.2,17.2C7.3,11,12.3,5.9,18.5,5.8c6.3,0,11.5,5.1,11.5,11.4
			c0,4.7-2.8,8.7-6.9,10.5c-0.1,0.1-0.2,0.2-0.3,0.4c-0.1,0.4-0.1,0.9-0.2,1.3c0,0.1,0.1,0.2,0.2,0.2c5.1-1.8,8.8-6.7,8.8-12.4
			C31.7,10,25.8,4.2,18.6,4.2z"/>
		<path id="XMLID_651_" class="st1" d="M18.3,8.5c-4.6,0.2-8.4,4-8.4,8.7c0,3.1,1.5,5.8,3.8,7.4c0.1,0.1,0.3,0,0.3-0.1
			c0-0.5,0-1,0-1.5c0-0.2,0-0.3-0.2-0.4c-1.4-1.3-2.3-3.3-2.2-5.4c0.1-3.7,3.1-6.8,6.8-6.9c4-0.2,7.4,3.1,7.4,7.1
			c0,2-0.9,3.9-2.2,5.2c-0.1,0.1-0.2,0.3-0.2,0.4c0,0.5,0,1,0,1.5c0,0.1,0.1,0.2,0.3,0.1c2.3-1.6,3.8-4.2,3.8-7.3
			C27.4,12.3,23.3,8.3,18.3,8.5z"/>
	</g>
</g>
<rect x="41.1" y="8.8" class="st2" width="87.9" height="34.2"/>
<text transform="matrix(1 0 0 1 41.0616 18.8789)"><tspan x="0" y="0" class="st1 st3 st4">Listen on</tspan><tspan x="0" y="16.2" class="st1 st5 st4">Apple Podcast</tspan></text>
</svg>
