<svg xmlns="http://www.w3.org/2000/svg" viewBox="0 0 1264.47 1364.98"><defs><style>.cls-1{fill:#57423c;}.cls-2{fill:#b7aa9e;}.cls-3{fill:#cfcec8;}</style></defs><g id="Capa_2" data-name="Capa 2"><g id="Capa_1-2" data-name="Capa 1"><path class="cls-1" d="M1003.2,854s128.91-4.88,158.19-73.2c0,0,12.64,72.56-176.78,111.07Z"/><path class="cls-1" d="M1051.05,550.55s110.09-29.74,153.48,10.84c0,0-7-49-174.29-34.49Z"/><path class="cls-2" d="M171.48,829.64S-123,971.17,59.82,1186c0,0-128.82-167.64,129.17-304.78Z"/><path class="cls-2" d="M1153.37,891.92l-63.19,23.14c63.29,63.22,143.32,191.52-82.35,329.51-299.75,188.17-748.73,62.61-748.73,62.61s395.26,150.08,784.31-33.44C1302.06,1151.74,1233.46,975.77,1153.37,891.92Z"/><path class="cls-2" d="M403.4,1193.77C183.49,1092.64,236.94,978.58,282.09,924.16v-7.73c-61.72,53-168,182.64,92.24,298.31,386,117.57,587.76-62.77,587.76-62.77S728.83,1299.7,403.4,1193.77Z"/><path class="cls-1" d="M1041.47,630.28s211.27-88.44,176.6,116.43c-31.15,184-229.82,182.18-229.82,182.18s239.92,14.75,272.37-188.81c37.16-233.13-206.6-153-206.6-153Z"/><path class="cls-1" d="M594.55,655.75s162.34,8,181.18,39.17c-4.2,42-345.82,66.4-444.13-25.52C351.83,610,518.65,566,600.72,566.05,713,566.11,874,603.27,903.29,701S693.44,805.24,605.6,803.31C195.66,776,200.54,575.36,200.54,575.36S252.81,405.06,614,405.06c502.66,0,435.75,239.13,401.59,295.45C1170.3,502.67,887.24,380.66,614,380.66c-253.78,0-444.11,92.72-447.57,218C161.6,771,306.49,1161.5,614,1161.5,882.36,1161.5,996,868.43,996,868.43s-118.54,277.74-386.95,263.79C287,1104.31,229.82,719.34,229.82,719.34S342.06,831.22,605.6,831.22c297.73,0,370.9-93.27,370.9-93.27C970.2,556.35,653,514.71,487.06,561.23S296.73,674.36,296.73,673.47c63.44,54.57,144.69,87.85,318.63,87.85,156.17,0,195.21-48.8,202.53-65.88C771.53,649.07,594.55,655.75,594.55,655.75Z"/><path class="cls-3" d="M630.79,303.29C495.47,118.64,646.4,0,646.4,0s-81.18,84.28-1.68,202.62,110.84,173.86,98.33,262S630,625.3,630,625.3,762.36,482.82,630.79,303.29Z"/></g></g></svg>