<?xml version="1.0" encoding="utf-8"?>
<!-- Generator: Adobe Illustrator 26.0.1, SVG Export Plug-In . SVG Version: 6.00 Build 0)  -->
<svg version="1.1" id="Capa_1" xmlns="http://www.w3.org/2000/svg" xmlns:xlink="http://www.w3.org/1999/xlink" x="0px" y="0px"
	 viewBox="0 0 266 73" style="enable-background:new 0 0 266 73;" xml:space="preserve">
<style type="text/css">
	.st0{fill:#FFFFFF;}
</style>
<path class="st0" d="M57.7,45.8c0,0,6.9-0.3,8.4-3.9c0,0,0.7,3.9-9.4,5.9L57.7,45.8z"/>
<path class="st0" d="M60.3,29.6c0,0,5.9-1.6,8.2,0.6c0,0-0.4-2.6-9.3-1.8L60.3,29.6z"/>
<path class="st0" d="M13.4,44.5c0,0-15.7,7.5-5.9,19c0,0-6.9-8.9,6.9-16.2L13.4,44.5z"/>
<g>
	<path class="st0" d="M65.7,47.8L62.4,49c3.4,3.4,7.6,10.2-4.4,17.6c-16,10-39.9,3.3-39.9,3.3s21.1,8,41.8-1.8
		C73.7,61.6,70,52.3,65.7,47.8z"/>
</g>
<path class="st0" d="M25.8,63.9c-11.7-5.4-8.9-11.5-6.5-14.4v-0.4c-3.3,2.8-9,9.7,4.9,15.9c20.6,6.3,31.3-3.3,31.3-3.3
	S43.1,69.5,25.8,63.9z"/>
<g>
	<path class="st0" d="M207.8,43.4c-0.2,0-0.5,0-0.8,0.1c-0.1,0-0.1,0.1-0.2,0.1c-0.1,0-0.1,0-0.2,0.1c-0.3,0.1-0.5,0.4-0.6,0.7
		s-0.1,0.6,0.1,0.8c0.2,0.2,0.4,0.4,0.6,0.4c0.2,0,0.5,0,0.7-0.1c0.1,0,0.1-0.1,0.1-0.1c0.1,0,0.1,0,0.2-0.1
		c0.3-0.1,0.4-0.4,0.5-0.7s0.1-0.6,0-0.8C208.2,43.6,208,43.4,207.8,43.4z"/>
	<path class="st0" d="M264.2,51.9c-0.1-0.2-0.2-0.3-0.4-0.2c-0.1,0.1-0.2,0.1-0.3,0.2h-0.1c-0.7,0.4-1.5,0.9-2.3,1.4
		c-0.8,0.4-1.5,0.9-2.3,1.3c-0.9,0.4-1.8,0.8-2.7,1.2c-0.9,0.3-1.8,0.5-2.7,0.6c-0.6,0.1-1,0-1.3-0.2s-0.5-0.4-0.7-0.8
		c-0.1-0.5-0.1-1.1,0.1-1.8c0.2-0.7,0.4-1.5,0.7-2.2c0.6-1,0.4-1.6-0.4-1.6c-0.5-0.1-1,0-1.4,0.3l0,0c-0.1,0-0.2,0.1-0.3,0.2
		c-0.5,0.3-0.9,0.6-1.3,1c-0.7,0.6-1.3,1.3-1.9,1.9c-0.6,0.6-1.3,1.2-2.2,1.8c-0.2,0.2-0.4,0.3-0.6,0.4c-0.1,0-0.1,0-0.2,0
		c-0.1,0-0.2-0.1-0.3-0.2c0-0.2,0-0.4,0.1-0.9c0.1-0.3,0.3-0.7,0.6-1.2c0.4-0.5,0.8-1.1,1.3-1.6c0.5-0.6,1-1.1,1.6-1.6
		c0.5-0.4,0.9-0.8,1.4-1c0.3-0.1,0.5-0.2,0.8-0.2s0.5,0,0.7,0.2c-0.1,0.3-0.1,0.5,0.1,0.5c0.1,0,0.3-0.1,0.4-0.2
		c0.1,0,0.3-0.1,0.4-0.2c0.2-0.2,0.3-0.4,0.5-0.7c0.1-0.3,0.2-0.6,0.1-0.8c-0.3-0.4-0.7-0.7-1.5-0.8c-0.7-0.1-1.5,0-2.2,0.4
		c-0.1,0-0.2,0.1-0.3,0.2c0,0,0,0-0.1,0c-0.5,0.3-1.1,0.6-1.8,1.2c-0.6,0.5-1.2,1.1-1.8,1.8c-0.5,0.7-1,1.4-1.5,2.1
		c-0.4,0.7-0.7,1.4-0.8,2.1c-0.2,1-0.1,1.7,0.4,2s1,0.4,1.7,0.1c0.1-0.1,0.3-0.1,0.4-0.2c0.4-0.2,0.8-0.4,1.2-0.8
		c0.4-0.4,0.9-0.8,1.4-1.2c0.4-0.4,0.9-0.9,1.3-1.4c0.4-0.5,0.8-0.9,1.2-1.2c0.2-0.2,0.4-0.4,0.6-0.5l0,0c-0.3,0.9-0.5,1.8-0.5,2.6
		s0.1,1.5,0.4,2.1c0.2,0.5,0.6,0.8,1.1,1.1c0.5,0.2,1.2,0.3,2.1,0.2c0.8-0.1,1.7-0.3,2.7-0.6s1.9-0.7,2.8-1.1
		c0.5-0.2,1.1-0.5,1.6-0.8s1-0.5,1.5-0.8c0.9-0.5,1.7-0.9,2.4-1.4C264.3,52.3,264.3,52.1,264.2,51.9z"/>
	<path class="st0" d="M208.3,39.6c1.6-0.1,3-0.2,4.4-0.2c1.3,0,2.5,0,3.6,0s1.9,0.1,2.6,0.2c-0.2,0.4-0.3,0.7-0.3,0.9
		s0.1,0.3,0.3,0.3s0.4,0,0.6-0.1c0.2-0.1,0.4-0.2,0.6-0.3c0.2-0.1,0.3-0.2,0.5-0.3c0.6-0.4,0.9-0.9,0.7-1.4s-0.7-0.8-1.5-0.8
		c-0.7,0-1.6,0-2.7,0c-1.1,0.1-2.3,0.1-3.7,0.2c-1.4,0.1-2.8,0.2-4.4,0.4c-1.6,0.2-3.2,0.3-4.8,0.5c0.7-1.7,1.4-3.4,1.9-5.1
		c0.6-1.7,1-3.3,1.2-4.8c0.1-0.6,0.1-1.1,0-1.5s-0.2-0.6-0.4-0.7s-0.4-0.1-0.7,0c-0.1,0-0.2,0.1-0.3,0.2l0,0
		c-0.3,0.1-0.5,0.3-0.7,0.5c-1,1.2-2,2.8-3,4.9c-1,2.1-2,4.4-3,7c-2.1,0.2-4.3,0.5-6.4,0.7c-2.2,0.3-3.4,0.3-5.4,0.5
		c-0.2,0-3.2,0.3-3.4,0.3l-2.2,0.1c-0.2,0-0.9,0.1-1.1,0.1c-0.5,0.1-1,0.1-1.5,0.1s-1,0.1-1.5,0.1c-0.3,0.1-0.6,0.1-0.8,0.1
		c-0.3,0-0.6,0.1-0.8,0.1c0.6-4.5,1.6-9,2.9-13.3c0.1-0.2,0.1-0.3,0.1-0.5s0.1-0.3,0.1-0.5c0-0.4-0.2-0.7-0.6-0.7
		c-0.2,0-0.4,0-0.5,0.1l-0.1,0.1c-0.1,0-0.2,0.1-0.2,0.1c-0.1,0.1-0.3,0.2-0.4,0.3c-2.4,2.2-4.4,4.6-6.2,7.3
		c-1.8,2.6-3.4,5.4-4.8,8.2c-0.6,0.1-1.1,0.1-1.7,0.2c-0.6,0.1-1.3,0.1-1.9,0.2c-0.3,0-0.6,0-0.9,0c-0.3,0-0.6,0-0.9,0h-0.3
		c-0.1-0.1-0.1-0.1-0.1-0.2c0-0.1-0.1-0.1-0.1-0.2c-0.1-0.1-0.1-0.2-0.2-0.2v-0.1l0,0v-0.2c0-0.1,0-0.2-0.1-0.3l0,0l0,0l0,0
		c-0.1-0.1-0.2-0.1-0.3-0.1c-0.3-0.1-0.6,0-0.7,0.2c-0.2,0-0.3,0.1-0.4,0.2c-0.3,0.3-0.3,0.7-0.3,1c0.1,0.3,0.3,0.6,0.7,0.8
		c0.1,0.1,0.3,0.1,0.5,0.2c0.1,0,0.3,0,0.4,0.1c0.1,0,0.2,0,0.4,0c0.6,0.8,1.1,1.6,1.5,2.5s0.8,1.8,1,2.7c0,0.1,0,0.2,0,0.3h-0.1
		c-0.1,0-0.2,0-0.3,0.1l-0.1,0.1c-0.1,0-0.2,0-0.2,0.1c-0.8,0.6-1.8,1.4-2.9,2.1c-1.1,0.8-2.2,1.5-3.4,2.2c-0.5,0.3-1,0.5-1.4,0.8
		c-0.6,0.3-1.2,0.5-1.8,0.8c-1.2,0.5-2.3,0.7-3.3,0.8c-0.5,0-0.9,0-1.3-0.1c-0.3-0.1-0.6-0.2-0.8-0.3c0.4-0.1,0.7-0.3,1.1-0.5
		c0.2-0.1,0.3-0.2,0.5-0.3c0.6-0.4,1.2-0.8,1.8-1.3s1.1-1.1,1.5-1.7c0.4-0.6,0.7-1.2,0.9-1.8c0.2-0.8,0.1-1.4-0.1-1.9
		c-0.3-0.5-0.6-0.8-1.1-1s-1-0.2-1.7,0c-0.3,0.1-0.5,0.2-0.8,0.3c-0.5,0.2-1,0.5-1.4,1c-0.7,0.7-1.2,1.5-1.7,2.4
		c-0.7,0.2-1.3,0.4-2,0.6c-0.8,0.3-1.7,0.5-2.6,0.8c-0.9,0.2-1.9,0.5-3,0.7s-2.3,0.4-3.6,0.5c-0.1-0.2-0.4-0.4-0.7-0.6
		c0.4-1.5,0.8-3.1,1.2-4.5c0.4-1.5,0.8-2.8,1.3-4.1c0.4-1.3,0.8-2.4,1.2-3.4s0.8-1.8,1.2-2.3c0.2-0.4,0.5-0.8,0.8-1.1
		c0.4-0.3,0.6-0.6,0.7-0.7c0.1-0.1,0.2-0.3,0.2-0.4c0-0.1-0.1-0.3-0.2-0.4c-0.1-0.1-0.2-0.2-0.4-0.2s-0.3,0-0.4,0.1l-0.1,0.1
		c-0.1,0-0.2,0-0.3,0.1c-0.3,0.3-0.5,0.6-0.8,0.9c-0.3,0.4-0.5,0.9-0.8,1.4c-0.6,1.2-1.2,2.6-1.9,4.3c-0.6,1.7-1.2,3.4-1.8,5.3
		c-0.3,1-0.6,2-0.9,3l0,0c-0.7,0.4-1.5,0.9-2.3,1.4c-0.8,0.4-1.5,0.9-2.3,1.3c-0.9,0.4-1.8,0.8-2.7,1.2c-0.9,0.3-1.8,0.5-2.7,0.6
		c-0.6,0.1-1,0-1.3-0.2s-0.5-0.4-0.7-0.8c-0.1-0.5-0.1-1.1,0.1-1.8s0.4-1.5,0.7-2.2c0.6-1,0.4-1.6-0.4-1.6c-0.5-0.1-1,0-1.4,0.3l0,0
		c-0.1,0-0.2,0.1-0.3,0.2c-0.5,0.3-0.9,0.6-1.3,1c-0.7,0.6-1.3,1.3-1.9,1.9c-0.6,0.6-1.3,1.2-2.2,1.8c-0.2,0.2-0.4,0.3-0.6,0.4
		c-0.1,0-0.1,0-0.2,0s-0.2-0.1-0.3-0.2c0-0.2,0-0.4,0.1-0.9c0.1-0.3,0.3-0.7,0.6-1.2c0.4-0.5,0.8-1.1,1.3-1.6c0.5-0.6,1-1.1,1.6-1.6
		c0.5-0.4,0.9-0.8,1.4-1c0.3-0.1,0.5-0.2,0.8-0.2s0.5,0,0.7,0.2c-0.1,0.3-0.1,0.5,0.1,0.5c0.1,0,0.3-0.1,0.4-0.2
		c0.1,0,0.3-0.1,0.4-0.2c0.2-0.2,0.3-0.4,0.5-0.7c0.1-0.3,0.2-0.6,0.1-0.8c-0.3-0.4-0.7-0.7-1.5-0.8c-0.7-0.1-1.5,0-2.2,0.4
		c-0.1,0-0.2,0.1-0.3,0.2c0,0,0,0-0.1,0c-0.5,0.3-1.1,0.6-1.8,1.2c-0.6,0.5-1.2,1.1-1.8,1.8c-0.5,0.7-1,1.4-1.5,2.1
		c0,0,0,0.1-0.1,0.1l-0.2,0.2c-1.1,1.6-2.5,3.4-4.5,5.7c-1.6,1.8-3.3,3.6-5.1,5.2c-0.6,0.6-1.3,1.2-2,1.8s-1.4,1.1-2.2,1.6
		c-0.4,0.2-0.8,0.4-1.2,0.6c-0.3,0.1-0.6,0.3-0.9,0.4c-0.6,0.1-1.1,0.2-1.5,0c-0.4-0.1-0.8-0.2-1.1-0.5c-0.3-0.2-0.6-0.5-0.8-0.8
		c-0.3-0.4-0.6-0.8-0.7-1.3c-0.2-0.5-0.3-0.9-0.4-1.4c-0.3-1-0.4-2-0.4-3s0.1-2,0.2-3.1c0.1-0.9,0.3-1.8,0.5-2.7s0.5-1.8,0.8-2.7
		c0.1-0.3,0.2-0.6,0.3-0.8c0.1-0.2,0.2-0.4,0.2-0.6c0.9,0.1,1.8,0.2,2.6,0c0.9-0.1,1.8-0.4,2.7-0.8c0.5-0.2,0.9-0.4,1.4-0.6
		c0.2-0.1,0.3-0.2,0.5-0.2c0.5-0.3,1-0.5,1.4-0.8c2.1-1.4,4-2.9,5.8-4.6c1.8-1.7,3.4-3.6,4.8-5.6c0.6-0.9,1.2-1.8,1.8-2.7
		c0.5-0.9,1-1.9,1.4-2.9c0.2-0.6,0.4-1.1,0.5-1.6s0.2-1.1,0.1-1.7c0-0.1,0-0.2,0-0.3c0-0.1-0.1-0.2-0.1-0.3
		c-0.3-0.7-0.7-1.2-1.3-1.4c-0.5-0.2-1.1-0.3-1.8-0.2c-0.6,0.1-1.3,0.3-2,0.6c-0.2,0.1-0.4,0.2-0.7,0.3c-0.6,0.3-1.2,0.6-1.7,1
		c-0.6,0.4-1.2,0.8-1.7,1.2c-0.5,0.4-0.9,0.7-1.2,0.9c-1.2,1-2.4,2.1-3.5,3.3s-2.2,2.4-3.2,3.7c-1.4,1.7-2.6,3.5-3.7,5.4
		c-1.1,1.8-2.1,3.8-3,5.8c-0.1,0.1-0.1,0.3-0.2,0.4c0,0,0,0.1-0.1,0.1c-0.1-0.1-0.2-0.1-0.3-0.2c-0.1-0.1-0.2-0.1-0.2-0.2
		c-2-1.7-3-3.8-3.1-6.3c0-0.8,0-1.6,0.2-2.4c0.1-0.8,0.3-1.6,0.5-2.4c0.1-0.4,0.3-0.9,0.4-1.3c0.1-0.3,0.3-0.7,0.4-1l0,0
		c0.1,0.1,0.2,0,0.3-0.1c0-0.1-0.1-0.1-0.1-0.2c0.1,0,0.1,0,0.2,0.1s0.2,0,0.3-0.1c-0.1-0.1-0.1-0.2-0.2-0.3s-0.1-0.2,0-0.4
		c0,0,0,0-0.1-0.1c0,0-0.1,0-0.1-0.1c-0.3-0.1-0.5-0.2-0.7-0.1c-0.1,0-0.2,0.1-0.3,0.2l0,0c-0.2,0.1-0.4,0.2-0.6,0.4
		c-1.3,2.3-2,4.7-1.9,7.3c0,1.4,0.3,2.7,0.9,3.8s1.4,2.2,2.4,3.1c0.2,0.2,0.5,0.4,0.8,0.6c0.3,0.2,0.6,0.3,0.9,0.5c0,0,0,0.1,0,0.3
		c-0.2,0.5-0.4,1-0.5,1.4c-0.4,1.1-0.7,2.3-1,3.4c-0.3,1.2-0.4,2.4-0.5,3.6c-0.1,0.8-0.1,1.6,0,2.3c0,0.8,0.1,1.5,0.3,2.3
		c0.1,0.6,0.3,1.1,0.5,1.6s0.5,1,0.8,1.4c0.9,1.3,2.1,1.9,3.6,1.9c0.6,0,1.1,0,1.7-0.2c0.5-0.2,1-0.4,1.5-0.6c0.1,0,0.1-0.1,0.2-0.1
		s0.1,0,0.2-0.1c1.2-0.6,2.3-1.4,3.2-2.2c1.4-1.1,2.6-2.3,3.8-3.6c1.2-1.3,2.4-2.6,3.5-3.9c0.8-1,1.6-2,2.4-3c0,0.7,0.1,1.1,0.5,1.4
		c0.5,0.3,1,0.4,1.7,0.1c0.1-0.1,0.3-0.1,0.4-0.2c0.4-0.2,0.8-0.4,1.2-0.8c0.4-0.4,0.9-0.8,1.4-1.2c0.4-0.4,0.9-0.9,1.3-1.4
		s0.8-0.9,1.2-1.2c0.2-0.2,0.4-0.4,0.6-0.5l0,0c-0.3,0.9-0.5,1.8-0.5,2.6s0.1,1.5,0.4,2.1c0.2,0.5,0.6,0.8,1.1,1.1
		c0.5,0.2,1.2,0.3,2.1,0.2c0.8-0.1,1.7-0.3,2.7-0.6s1.9-0.7,2.8-1.1c0.5-0.2,1.1-0.5,1.6-0.8s1-0.5,1.5-0.8s1-0.6,1.5-0.8
		c-0.2,0.6-0.3,1.2-0.5,1.8c-0.5,2-0.9,3.9-1.3,5.8c-0.4,1.9-0.7,3.6-0.9,5.3c-0.2,1.6-0.3,3-0.3,4.2c0,1,0.2,1.8,0.5,2.2
		c0.4,0.4,0.8,0.6,1.3,0.6c0.2,0,0.5-0.1,0.7-0.3c0.4-0.1,0.7-0.4,1.1-0.8c0.5-0.5,0.9-1.3,1.1-2.2c0.3-0.9,0.5-1.8,0.7-2.9
		s0.3-2.1,0.4-3.2c0.1-1.1,0.1-2.2,0.1-3.2c0-1.1-0.1-2.1-0.2-3c-0.1-0.3-0.1-0.6-0.2-1c-0.1-0.4-0.2-0.7-0.4-1.1
		c0.8-0.1,1.6-0.3,2.5-0.4c1-0.2,2.1-0.4,3.1-0.6c1-0.2,2-0.4,3-0.7c0.6-0.2,1.2-0.3,1.8-0.5c-0.2,0.6-0.4,1.2-0.4,1.8
		c-0.1,0.9,0.2,1.6,0.7,2.2c0.5,0.6,1.5,0.9,2.9,0.8c1.1-0.1,2.2-0.3,3.5-0.8c1-0.4,1.9-0.8,2.9-1.3c0.4-0.2,0.8-0.4,1.2-0.6
		c1.2-0.7,2.4-1.4,3.5-2.2c1-0.7,1.9-1.3,2.6-1.9c-1.5,3.5-2.7,7-3.8,10.5c-0.4,1.2-0.8,2.4-1.1,3.6c-0.4,1.2-0.6,2.4-0.8,3.7
		c-0.1,0.2-0.1,0.5-0.1,0.7s0,0.5,0,0.8s0.2,0.5,0.6,0.6h0.6c0.2,0,0.4-0.1,0.6-0.2c0.3-0.1,0.5-0.3,0.7-0.6
		c0.2-0.3,0.4-0.6,0.7-0.9c0.2-0.3,0.4-0.6,0.6-0.9c0.9-1.6,1.7-3.2,2.3-4.9c0.6-1.7,1.1-3.4,1.4-5.3c0.2-1.1,0.4-2.1,0.4-3.2
		c0.1-1.1,0-2.1-0.1-3.2c0-0.1,0-0.3,0-0.3c0-0.1,0.1-0.2,0.1-0.3c0.5-1.2,1.1-2.4,1.6-3.6c0.5-1.1,1.1-2.3,1.6-3.4
		c0.4-0.1,0.9-0.1,1.3-0.2c0.5-0.1,1-0.2,1.6-0.2c0.5-0.1,1-0.2,1.5-0.3s1-0.2,1.5-0.2c0.1,0,0.2,0,0.3,0c-0.1,0.6-0.3,1.3-0.4,2
		c-0.1,0.7-0.3,1.3-0.4,2c-0.2,1.1-0.3,2.1-0.5,3.2c-0.1,1.1-0.2,2.1-0.3,3.2c-0.1,1.2,0,2.4,0.1,3.6c0.1,1.2,0.3,2.4,0.6,3.6
		c0.1,0.5,0.3,1,0.5,1.5s0.4,0.9,0.7,1.4c0.3,0.4,0.6,0.8,0.9,1.1c0.2,0.1,0.4,0.3,0.6,0.3c0.2,0.1,0.4,0,0.5-0.2
		c0.2,0,0.3-0.1,0.4-0.2c-0.1,0-0.1,0-0.1-0.1c0,0,0,0-0.1-0.1c-0.5-0.3-0.9-0.7-1.1-1.2c-0.1-0.3-0.2-0.6-0.3-0.9
		c-0.1-0.3-0.2-0.6-0.3-0.9c-0.4-1.3-0.6-2.6-0.7-4c-0.1-1.3,0-2.7,0.1-4c0.1-1.7,0.3-3.5,0.6-5.2c0.1-1,0.3-1.9,0.5-2.8
		c0.2-0.9,0.3-1.8,0.5-2.6c0.2,0,0.3,0,0.5-0.1c0.3,0,0.5-0.1,0.8-0.1c0.5-0.1,1-0.1,1.5-0.2c0.3,0,0.7-0.1,1-0.1
		c1.6-0.2,3.3-0.3,4.6-0.5c0.3,0,1.6-0.2,1.8-0.2c1.9-0.2,4-0.4,6.2-0.7c2.2-0.2,4.4-0.4,6.6-0.6c-0.9,2.4-1.7,4.9-2.4,7.4
		c-0.3,1.1-0.6,2.2-0.9,3.3c-0.3,0.3-0.7,0.6-1.2,0.9c-0.8,0.6-1.6,1.1-2.4,1.7c-0.8,0.5-1.7,1-2.5,1.4c-0.6,0.3-1.2,0.5-1.6,0.5
		c-0.6,0-1.1-0.2-1.3-0.8s-0.3-1.2-0.2-2c0-0.8,0.2-1.6,0.3-2.4c0.2-0.8,0.3-1.5,0.5-2c0.2-0.1,0.3-0.2,0.3-0.4s-0.1-0.4-0.3-0.6
		c-0.2-0.2-0.4-0.3-0.6-0.3c-0.2,0-0.3,0-0.4,0.2c-0.2,0-0.3,0.1-0.4,0.3c-0.3,0.5-0.5,1.1-0.9,1.9c-0.3,0.7-0.7,1.5-1.1,2.3
		c-0.4,0.8-0.8,1.5-1.3,2.3c-0.4,0.7-0.9,1.4-1.3,1.9c-0.1,0.2-0.3,0.4-0.5,0.5c-0.2,0.2-0.4,0.4-0.6,0.5c-0.1,0-0.2,0-0.2,0
		c-0.2,0-0.3-0.1-0.4-0.4c-0.1-0.4-0.2-0.8-0.1-1.4c0.1-0.5,0.2-1.1,0.3-1.6c0.2-0.5,0.3-1,0.5-1.5s0.4-0.9,0.5-1.2
		c0.3-0.1,0.4-0.3,0.3-0.5c-0.1-0.2-0.2-0.3-0.5-0.4c-0.2-0.1-0.5-0.2-0.8-0.1c-0.2,0-0.3,0.1-0.5,0.2c-0.2,0-0.4,0.2-0.5,0.4
		c-0.3,0.6-0.5,1.2-0.7,1.8s-0.4,1.3-0.5,1.9c-0.1,0.6-0.2,1.2-0.1,1.8c0,0.6,0.2,1,0.5,1.4s0.6,0.6,0.9,0.7c0.3,0,0.6,0,1-0.2
		c0.1,0,0.1-0.1,0.2-0.1c0.1,0,0.1-0.1,0.2-0.1c0.3-0.2,0.6-0.4,0.9-0.7c0.3-0.3,0.5-0.5,0.8-0.8c0.6-0.6,1.2-1.4,1.8-2.3
		c0.5-0.7,0.9-1.4,1.4-2.1c-0.1,0.5-0.1,1-0.1,1.4c0,0.6,0.1,1.2,0.2,1.7c0.2,0.5,0.4,0.9,0.8,1.2c0.4,0.3,0.9,0.4,1.6,0.4
		c0.6,0,1.4-0.2,2.2-0.5c0.5-0.2,1-0.4,1.5-0.7c0.5-0.2,0.9-0.5,1.4-0.7c0.8-0.5,1.7-1,2.4-1.5l0.1-0.1c-0.2,0.9-0.4,1.7-0.6,2.6
		c-0.5,2.3-0.8,4.5-0.9,6.5c-0.2,2-0.1,3.5,0.2,4.7c0.2,0.7,0.5,1.4,0.8,1.9s0.8,0.9,1.3,1.2c0.2,0.1,0.3,0.1,0.4,0
		c0.1,0,0.1-0.1,0.1-0.1c0.1,0,0.2,0,0.2-0.1c0.1-0.1,0.2-0.2,0.3-0.4c0.1-0.2,0.1-0.3,0-0.4c0-0.1-0.1-0.2-0.2-0.3
		c-1-0.3-1.6-0.9-1.9-1.9c-0.2-0.6-0.2-1.5-0.2-2.5s0.1-2.1,0.3-3.4c0.2-1.2,0.4-2.6,0.7-4s0.6-3,1-4.5V52c0.5-0.6,1.1-1.4,1.7-2.3
		c0.6-0.9,1.2-1.8,1.8-2.9c0.6-1,1.2-2.2,1.8-3.3s1.1-2.3,1.7-3.5C205.3,39.8,206.8,39.7,208.3,39.6z M205.8,29.2
		c-0.5,1.7-1.1,3.4-1.8,5.1c-0.7,1.7-1.4,3.4-2.3,5.1c-0.2,0-0.4,0-0.5,0.1c-0.3,0-0.6,0-0.9,0.1c0.9-2.3,1.8-4.4,2.8-6.2
		c1-1.9,1.8-3.3,2.6-4.4c0,0,0-0.1,0.1-0.1C205.8,28.9,205.8,29,205.8,29.2z M201.5,40.1c-0.6,1.3-1.3,2.6-2,3.9
		c-0.5,0.9-1,1.8-1.5,2.8c0.3-1.1,0.6-2.2,1-3.3s0.8-2.2,1.2-3.3L201.5,40.1z M177.7,28.5c-0.4,1.2-0.7,2.4-1,3.5
		c-0.3,1.1-0.6,2.2-0.8,3.3c-0.3,1.1-0.5,2.2-0.8,3.3c-0.2,1.1-0.5,2.2-0.8,3.4c-0.6,0.1-1.2,0.1-1.9,0.2c-0.6,0.1-1.3,0.2-1.9,0.2
		c-0.3,0.1-0.7,0.1-1,0.1c-0.4,0-0.7,0.1-1,0.1c1.4-2.8,2.9-5.4,4.3-7.9c1.4-2.4,3.1-4.7,5-6.8l0.1-0.1
		C177.8,28.2,177.7,28.3,177.7,28.5z M162.7,44.5c0.5,0,1-0.1,1.5-0.1c0.3-0.1,0.5-0.1,0.8-0.1s0.5,0,0.8-0.1c-0.3,0.6-0.7,1.3-1,2
		s-0.6,1.4-0.9,2.1c0,0,0,0,0-0.1c-0.2-0.5-0.4-0.9-0.6-1.4c-0.2-0.4-0.5-0.9-0.7-1.3c-0.2-0.4-0.4-0.7-0.7-1
		C162,44.5,162.4,44.5,162.7,44.5z M158.4,69.1c0-0.2,0-0.3,0.1-0.4c0.1-0.8,0.3-1.6,0.5-2.3c0.2-0.8,0.4-1.5,0.7-2.3
		c0.6-1.8,1.2-3.5,1.8-5.3c0.6-1.6,1.2-3.2,1.8-4.8c0,0.2,0,0.3,0,0.5c0,0.3,0,0.7-0.1,1c-0.2,2.5-0.7,4.9-1.4,7.1
		c-0.4,1-0.8,2.1-1.2,3.1s-1,2-1.6,2.9c-0.1,0.2-0.2,0.3-0.4,0.5c-0.1,0.1-0.1,0.2-0.2,0.2C158.4,69.2,158.4,69.2,158.4,69.1z
		 M147.3,52.3c0.5-1,1.1-1.9,1.7-2.6c0.4-0.4,0.7-0.7,1-0.9c0.3-0.1,0.6-0.1,0.7,0c0.2,0.1,0.3,0.4,0.3,0.8c0,0.4-0.2,0.9-0.5,1.4
		c-0.5,0.8-1.1,1.6-1.8,2.4c-0.7,0.7-1.4,1.3-2.1,1.8C146.5,54.3,146.8,53.3,147.3,52.3z M131.8,69.6c-0.1-1,0-2.2,0.2-3.7
		s0.4-3.2,0.8-5c0.3-1.8,0.7-3.6,1.2-5.5c0.1,0.3,0.2,0.6,0.3,1s0.1,0.7,0.2,1c0.1,0.9,0.2,1.8,0.1,2.9c0,1-0.1,2.1-0.2,3.2
		c-0.1,1.1-0.3,2.1-0.5,3.1s-0.4,2-0.7,2.8s-0.5,1.4-0.6,1.6c-0.1,0.1-0.1,0.2-0.2,0.2C132,71.1,131.8,70.6,131.8,69.6z M112.6,27.7
		c0.7-0.2,1.3-0.3,1.8-0.1c0.5,0.2,0.8,0.6,0.9,1.4c0.1,0.3,0.1,0.6,0,0.9c0,0.3-0.1,0.7-0.1,1c-0.1,0.7-0.3,1.4-0.6,2.1
		c-0.3,0.6-0.6,1.3-0.9,1.9c-0.5,1-1.1,2-1.8,2.9c-0.6,0.9-1.3,1.8-2.1,2.7c-1.2,1.4-2.4,2.7-3.8,3.9c-1.3,1.2-2.7,2.3-4.3,3.3
		c-0.7,0.5-1.5,0.9-2.2,1.3c-0.7,0.3-1.4,0.6-2.1,0.8c-0.5,0.1-0.9,0.2-1.4,0.3c-0.5,0-0.9,0-1.4,0c-0.1,0-0.3,0-0.4,0
		s-0.3-0.1-0.4-0.2l0.5-1.2c1.4-3.1,3-6,4.9-8.7s4-5.2,6.4-7.6c0.1-0.1,0.4-0.4,0.9-0.9c0.5-0.5,1.1-1,1.9-1.5
		c0.7-0.5,1.5-1.1,2.3-1.6c0.3-0.2,0.6-0.4,0.9-0.5C111.9,27.9,112.3,27.8,112.6,27.7z"/>
	<path class="st0" d="M247.9,39.6c1.6-0.1,3-0.2,4.4-0.2c1.3,0,2.5,0,3.6,0s1.9,0.1,2.6,0.2c-0.2,0.4-0.3,0.7-0.3,0.9
		s0.1,0.3,0.3,0.3c0.2,0,0.4,0,0.6-0.1s0.4-0.2,0.6-0.3s0.3-0.2,0.5-0.3c0.6-0.4,0.9-0.9,0.7-1.4c-0.2-0.5-0.7-0.8-1.5-0.8
		c-0.7,0-1.6,0-2.7,0c-1.1,0.1-2.3,0.1-3.7,0.2c-1.4,0.1-2.8,0.2-4.4,0.4c-1.6,0.2-3.2,0.3-4.8,0.5c0.7-1.7,1.4-3.4,1.9-5.1
		c0.6-1.7,1-3.3,1.2-4.8c0.1-0.6,0.1-1.1,0-1.5s-0.2-0.6-0.4-0.7s-0.4-0.1-0.7,0c-0.1,0-0.2,0.1-0.3,0.2l0,0
		c-0.3,0.1-0.5,0.3-0.7,0.5c-1,1.2-2,2.8-3,4.9c-1,2.1-2,4.4-3,7c-2.1,0.2-4.3,0.5-6.4,0.7c-2.2,0.3-4.3,0.5-6.3,0.7
		s-3.8,0.4-5.4,0.6c-1.6,0.2-2.9,0.4-4,0.5c0.2-0.1,0.3-0.2,0.3-0.3s-0.1-0.2-0.2-0.3c-0.1-0.1-0.2-0.1-0.4-0.1
		c-0.1,0-0.2,0.1-0.3,0.2l0,0c-0.2,0-0.3,0.1-0.4,0.3c-0.1,0.2-0.1,0.3,0,0.5s0.4,0.2,0.7,0.2c1-0.1,2.3-0.3,3.9-0.4
		c1.6-0.2,3.4-0.4,5.3-0.6c1.9-0.2,4-0.4,6.2-0.7c2.2-0.2,4.4-0.4,6.6-0.6c-0.9,2.4-1.7,4.9-2.4,7.4c-0.3,1.2-0.6,2.3-0.9,3.4
		c-0.4,0.1-1,0.3-1.7,0.6c-1.1,0.4-2.4,0.8-3.8,1.4c-1.4,0.5-2.9,1.2-4.4,1.8c-1,0.4-1.9,0.9-2.8,1.3c-0.5,0.2-1,0.5-1.4,0.7
		c-0.2-0.5-0.5-1-0.8-1.5s-0.6-1-0.9-1.5c-0.2-0.5-0.4-1-0.5-1.5c0-0.3,0-0.5,0-0.8c0-0.1,0.1-0.5,0.1-0.5s0.1-0.2,0.1-0.3
		c0.2-0.3,0.4-0.7,0.7-1s0.6-0.6,0.9-0.9c0.3-0.3,0.6-0.5,1-0.8c0.3-0.2,0.6-0.4,0.8-0.5s0.4-0.1,0.5-0.1c0.1,0.1,0.1,0.2,0.1,0.4
		s-0.1,0.4-0.2,0.6c-0.1,0.2-0.2,0.3-0.3,0.4c-0.2,0.2,0,0.4,0.4,0.5c0.3,0.1,0.5,0,0.7-0.2c0.2,0,0.3-0.1,0.4-0.2
		c0.2-0.2,0.3-0.5,0.5-0.7c0.2-0.4,0.2-0.8,0.2-1.1s-0.2-0.4-0.4-0.5s-0.5-0.1-0.8,0s-0.7,0.2-1,0.4c-0.1,0.1-0.3,0.1-0.4,0.2
		c-0.6,0.4-1.3,0.9-2,1.5s-1.3,1.3-1.6,2c0,0.1-0.1,0.2-0.2,0.2c-0.4,0.2-1.1,0.5-1.7,1c-0.7,0.4-1.4,0.9-2.2,1.4s-1.7,1-2.6,1.4
		c-0.2,0.1-0.3,0.2-0.5,0.2c-0.6,0.3-1.2,0.5-1.7,0.7c-0.8,0.3-1.6,0.5-2.3,0.5c-0.7,0.1-1.2,0-1.6-0.4c-0.5-0.3-0.7-0.9-0.7-1.6
		c0-0.7,0.1-1.4,0.3-2.2s0.5-1.6,0.8-2.3c0.3-0.8,0.6-1.4,0.8-1.8c0.1-0.2,0-0.4-0.1-0.5c-0.2-0.1-0.4-0.2-0.6-0.3
		c-0.3-0.1-0.5-0.1-0.7,0c-0.2,0-0.3,0.1-0.4,0.2c-0.2,0-0.4,0.1-0.4,0.3c-0.4,0.8-0.7,1.8-1.1,2.8c-0.4,1-0.6,2-0.7,3
		c-0.1,0.9,0,1.8,0.3,2.4c0.3,0.7,1,1.1,2,1.2c1,0.1,2,0,3.2-0.3s2.4-0.8,3.7-1.3c0.7-0.3,1.3-0.6,1.9-0.9c0.7-0.3,1.3-0.7,1.9-1
		c0.8-0.5,1.5-0.9,2.2-1.2c0,0.2,0,0.3,0,0.5c0,0.6,0.2,1.2,0.4,1.8s0.5,1.1,0.8,1.6s0.6,1,0.8,1.5c-0.3,0.2-0.6,0.4-0.9,0.5
		c-0.3,0.2-0.5,0.4-0.8,0.5l0,0c0,0,0,0-0.1,0c0,0,0,0-0.1,0c-0.6,0.5-1,1-1.2,1.5c-0.3,0.6-0.2,1.1,0.1,1.4
		c0.4,0.3,0.8,0.4,1.3,0.3c0.4,0,0.7-0.2,1.1-0.4c0.3-0.1,0.6-0.3,0.9-0.5c0.5-0.4,0.9-0.9,1.1-1.6c0.1-0.3,0.1-0.7,0.1-1
		s-0.1-0.6-0.2-0.9c1-0.6,1.9-1.1,2.9-1.6c0.6-0.3,1.2-0.6,1.8-0.8c1.6-0.7,3.1-1.3,4.5-1.7s2.5-0.8,3.4-1c0.4-0.1,0.7-0.2,1-0.2
		c-0.2,1-0.5,2-0.7,2.9c-0.5,2.3-0.8,4.5-0.9,6.5c-0.2,2-0.1,3.5,0.2,4.7c0.2,0.7,0.5,1.4,0.8,1.9s0.8,0.9,1.3,1.2
		c0.2,0.1,0.3,0.1,0.4,0c0.1,0,0.1-0.1,0.1-0.1c0.1,0,0.2,0,0.2-0.1c0.1-0.1,0.2-0.2,0.3-0.4c0.1-0.2,0.1-0.3,0-0.4
		c0-0.1-0.1-0.2-0.2-0.3c-1-0.3-1.6-0.9-1.9-1.9c-0.2-0.6-0.2-1.5-0.2-2.5s0.1-2.1,0.3-3.4c0.2-1.2,0.4-2.6,0.7-4s0.6-3,1-4.5V52
		c0.5-0.6,1.1-1.4,1.7-2.3c0.6-0.9,1.2-1.8,1.8-2.9c0.6-1,1.2-2.2,1.8-3.3s1.1-2.3,1.7-3.5C244.9,39.8,246.4,39.7,247.9,39.6z
		 M245.4,29.2c-0.5,1.7-1.1,3.4-1.8,5.1c-0.7,1.7-1.4,3.4-2.3,5.1c-0.2,0-0.4,0-0.5,0.1c-0.3,0-0.6,0-0.9,0.1
		c0.9-2.3,1.8-4.4,2.8-6.2c1-1.9,1.8-3.3,2.6-4.4c0,0,0-0.1,0.1-0.1C245.5,28.9,245.5,29,245.4,29.2z M241.1,40.1
		c-0.6,1.3-1.3,2.6-2,3.9c-0.5,0.9-1,1.8-1.5,2.8c0.3-1.1,0.6-2.2,1-3.3s0.8-2.2,1.2-3.3L241.1,40.1z M219.3,60.4
		c-0.3,0.1-0.5,0.1-0.7,0.1s-0.3-0.1-0.3-0.3c-0.1-0.3,0.2-0.6,0.8-1.1c0.4-0.3,0.8-0.5,1.2-0.8c0.1,0.4,0.1,0.8,0,1.2
		c-0.1,0.3-0.3,0.5-0.5,0.7c-0.1,0.1-0.2,0.1-0.3,0.2C219.4,60.4,219.3,60.4,219.3,60.4z"/>
</g>
<path class="st0" d="M59.8,33.9c0,0,11.3-4.7,9.4,6.2C67.5,49.9,57,49.8,57,49.8s12.8,0.8,14.5-10.1c2-12.4-11-8.2-11-8.2L59.8,33.9
	z"/>
<path class="st0" d="M36,35.2c0,0,8.6,0.4,9.7,2.1c-0.2,2.2-18.4,3.5-23.7-1.4c1.1-3.2,10-5.5,14.3-5.5c6,0,14.6,2,16.1,7.2
	s-11.2,5.6-15.9,5.5C14.7,41.6,15,30.9,15,30.9s2.8-9.1,22-9.1c26.8,0,23.2,12.7,21.4,15.7c8.2-10.5-6.8-17-21.4-17
	c-13.5,0-23.7,4.9-23.8,11.6c-0.3,9.2,7.5,30,23.8,30c14.3,0,20.4-15.6,20.4-15.6S51,61.3,36.7,60.6c-17.2-1.5-20.2-22-20.2-22
	s6,6,20,6c15.9,0,19.8-5,19.8-5c-0.3-9.7-17.2-11.9-26.1-9.4s-10.1,6-10.1,6c3.4,2.9,7.7,4.7,17,4.7c8.3,0,10.4-2.6,10.8-3.5
	C45.4,34.9,36,35.2,36,35.2z"/>
<path class="st0" d="M37.9,16.4c-7.2-9.8,0.8-16.2,0.8-16.2S34.4,4.7,38.6,11s5.9,9.3,5.2,14s-6,8.6-6,8.6S44.9,26,37.9,16.4z"/>
</svg>
